<?xml version="1.0" encoding="UTF-8" standalone="no"?>
<!-- Created with Inkscape (http://www.inkscape.org/) -->

<svg
   xmlns:dc="http://purl.org/dc/elements/1.1/"
   xmlns:cc="http://creativecommons.org/ns#"
   xmlns:rdf="http://www.w3.org/1999/02/22-rdf-syntax-ns#"
   xmlns:svg="http://www.w3.org/2000/svg"
   xmlns="http://www.w3.org/2000/svg"
   version="1.1"
   width="121.42857"
   height="82.14286"
   id="svg8649">
  <defs
     id="defs8651">
    <linearGradient
       x1="0"
       y1="0"
       x2="1"
       y2="0"
       id="linearGradient8807"
       gradientUnits="userSpaceOnUse"
       gradientTransform="matrix(0,-30.757034,302.41644,0,30.561706,578.2946)"
       spreadMethod="pad">
      <stop
         id="stop8809"
         style="stop-color:#0994dc;stop-opacity:1"
         offset="0" />
      <stop
         id="stop8811"
         style="stop-color:#2e3192;stop-opacity:1"
         offset="0.81999999" />
      <stop
         id="stop8813"
         style="stop-color:#0994dc;stop-opacity:1"
         offset="1" />
    </linearGradient>
    <clipPath
       id="clipPath8769">
      <path
         d="m -11.339,606.614 864.567,0 0,-182.006 -864.567,0 0,182.006 z"
         id="path8771" />
    </clipPath>
    <clipPath
       id="clipPath8703">
      <path
         d="m 670.669,204.25 9.769,0 0,16.463 -9.769,0 0,-16.463 z"
         id="path8705" />
    </clipPath>
    <clipPath
       id="clipPath8691">
      <path
         d="m 270.269,403.982 c 8.511,-16.727 25.062,-33.405 32.031,-53.3 -0.135,-9.444 27.78,-44.816 19.732,-43.819 -20.877,0 -38.907,0.256 -58.938,0.256 -22.97,0 -73.841,-12.397 -44.076,27.675 14.209,19.129 23.221,69.445 51.251,69.188"
         id="path8693" />
    </clipPath>
    <clipPath
       id="clipPath8679">
      <path
         d="m -11.339,606.614 864.567,0 0,-617.953 -864.567,0 0,617.953 z"
         id="path8681" />
    </clipPath>
  </defs>
  <metadata
     id="metadata8654">
    <rdf:RDF>
      <cc:Work
         rdf:about="">
        <dc:format>image/svg+xml</dc:format>
        <dc:type
           rdf:resource="http://purl.org/dc/dcmitype/StillImage" />
        <dc:title></dc:title>
      </cc:Work>
    </rdf:RDF>
  </metadata>
  <g
     transform="translate(-429.35708,-192.16336)"
     id="layer1">
    <g
       transform="matrix(1.25,0,0,-1.25,-176.18087,904.40918)"
       id="g8665">
      <g
         transform="translate(542.93862,560.84297)"
         id="g8781">
        <path
           d="m 0,0 -1.718,-3.486 -5.447,-0.13 c 0,0 -1.702,0 -2.863,-1.833 l -5.677,-10.308 c 0,0 -0.327,-0.556 -0.867,-0.572 l -4.45,0.229 c 0,0 -0.474,-0.05 -0.098,0.621 0,0 4.056,8.346 7.312,13.614 0,0 0.788,1.68 3.36,1.784 0,0 4.185,0.164 10.448,0.081 z m -12.48,-10.886 1.285,2.509 c 0,0 0.146,0.27 0.623,0.27 0.476,0 6.47,0.083 6.47,0.083 0,0 0.29,0.02 0.145,-0.291 l -1.389,-2.634 c 0,0 -0.062,-0.165 -0.457,-0.165 l -6.574,-0.083 c 0,0 -0.228,0.021 -0.103,0.311 z m 17.224,2.785 c 0,-8.455 -6.854,-15.309 -15.309,-15.309 -8.455,0 -15.309,6.854 -15.309,15.309 0,8.454 6.854,15.308 15.309,15.308 8.455,0 15.309,-6.854 15.309,-15.308 z m -1.98,0 c 0,-7.361 -5.967,-13.329 -13.329,-13.329 -7.361,0 -13.329,5.968 -13.329,13.329 0,7.361 5.968,13.328 13.329,13.328 7.362,0 13.329,-5.967 13.329,-13.328"
           id="path8783"
           style="fill:#176fc1;fill-opacity:1;fill-rule:evenodd;stroke:none" />
      </g>
      <g
         transform="translate(505.42891,506.21937)"
         id="g8785">
        <path
           d="M 0,0 C -0.018,0.118 -0.037,0.231 -0.062,0.341 -0.086,0.45 -0.113,0.55 -0.147,0.642 L -1.676,5.318 -1.986,1.676 C -2.001,1.493 -2.016,1.256 -2.033,0.965 -2.049,0.672 -2.063,0.35 -2.075,0 L -2.88,0 c 0.109,0.746 0.209,1.632 0.297,2.659 0.089,1.027 0.161,2.14 0.217,3.34 l 1.304,0 C -1.031,5.866 -1.003,5.741 -0.975,5.623 -0.947,5.505 -0.918,5.395 -0.889,5.291 L 0.624,0.598 2.508,5.092 c 0.059,0.142 0.117,0.286 0.172,0.436 0.056,0.15 0.112,0.307 0.165,0.471 l 1.296,0 C 4.122,5.693 4.107,5.339 4.092,4.942 4.089,4.853 4.088,4.791 4.088,4.756 L 3.969,1.332 C 3.969,1.305 3.967,1.267 3.964,1.217 3.961,1.167 3.959,1.13 3.959,1.105 3.959,0.916 3.961,0.731 3.965,0.547 3.97,0.363 3.978,0.18 3.985,0 L 3.109,0 c 0.018,0.222 0.035,0.43 0.052,0.626 0.016,0.195 0.028,0.356 0.037,0.479 l 0.115,2.788 c 0.009,0.181 0.015,0.33 0.018,0.45 0.003,0.119 0.005,0.234 0.005,0.342 0,0.068 -0.002,0.174 -0.005,0.319 C 3.328,5.147 3.327,5.259 3.327,5.336 L 1.412,0.726 C 1.373,0.634 1.333,0.527 1.294,0.405 1.255,0.282 1.213,0.148 1.167,0 L 0,0 z m 10.782,2.854 c 0,-0.752 0.21,-1.332 0.629,-1.737 0.418,-0.406 1.016,-0.608 1.792,-0.608 0.781,0 1.38,0.225 1.795,0.675 0.416,0.45 0.624,1.098 0.624,1.943 0,0.764 -0.208,1.35 -0.624,1.755 -0.415,0.406 -1.014,0.608 -1.795,0.608 -0.788,0 -1.388,-0.225 -1.801,-0.675 -0.413,-0.45 -0.62,-1.103 -0.62,-1.961 z m 2.275,-2.982 c -0.971,0 -1.731,0.264 -2.282,0.791 -0.55,0.528 -0.825,1.259 -0.825,2.191 0,1.031 0.293,1.835 0.881,2.408 0.587,0.574 1.412,0.861 2.473,0.861 0.994,0 1.767,-0.266 2.321,-0.796 0.553,-0.531 0.829,-1.274 0.829,-2.23 0,-1.018 -0.296,-1.809 -0.889,-2.375 -0.594,-0.567 -1.429,-0.85 -2.508,-0.85 z M 23.387,0 c 0.069,0.625 0.132,1.409 0.191,2.35 0.059,0.94 0.105,1.956 0.142,3.051 C 23.33,5.395 22.992,5.386 22.707,5.374 22.42,5.363 22.16,5.347 21.927,5.325 l 0.027,0.674 4.34,0 -0.018,-0.669 c -0.171,0.018 -0.373,0.032 -0.605,0.043 -0.233,0.01 -0.61,0.018 -1.133,0.024 L 24.339,1.96 C 24.327,1.809 24.319,1.653 24.316,1.49 24.313,1.329 24.311,1.092 24.311,0.779 24.311,0.61 24.313,0.468 24.315,0.349 24.316,0.231 24.316,0.115 24.316,0 l -0.929,0 z m 8.924,2.854 c 0,-0.752 0.21,-1.332 0.628,-1.737 0.418,-0.406 1.016,-0.608 1.793,-0.608 0.78,0 1.38,0.225 1.795,0.675 0.415,0.45 0.623,1.098 0.623,1.943 0,0.764 -0.208,1.35 -0.623,1.755 C 36.112,5.288 35.512,5.49 34.732,5.49 33.943,5.49 33.344,5.265 32.93,4.815 32.518,4.365 32.311,3.712 32.311,2.854 z m 2.274,-2.982 c -0.971,0 -1.731,0.264 -2.282,0.791 -0.549,0.528 -0.824,1.259 -0.824,2.191 0,1.031 0.293,1.835 0.88,2.408 0.588,0.574 1.412,0.861 2.474,0.861 0.993,0 1.766,-0.266 2.32,-0.796 0.553,-0.531 0.829,-1.274 0.829,-2.23 0,-1.018 -0.295,-1.809 -0.889,-2.375 -0.593,-0.567 -1.428,-0.85 -2.508,-0.85 z M 43.682,0 c 0.083,0.728 0.151,1.605 0.204,2.63 0.053,1.026 0.088,2.146 0.106,3.365 l 2.109,0.004 c 0.653,0 1.111,-0.11 1.376,-0.332 0.266,-0.221 0.398,-0.584 0.398,-1.092 0,-0.507 -0.157,-0.916 -0.471,-1.227 C 47.09,3.036 46.648,2.854 46.075,2.801 L 47.724,0 46.761,0 C 46.672,0.189 46.579,0.374 46.48,0.556 46.381,0.737 46.267,0.935 46.137,1.151 l -1.304,2.195 c 0.069,-0.003 0.152,-0.007 0.244,-0.012 0.094,-0.004 0.15,-0.006 0.171,-0.006 0.601,0 1.053,0.098 1.353,0.296 0.301,0.198 0.452,0.494 0.452,0.889 0,0.319 -0.085,0.541 -0.253,0.668 -0.167,0.126 -0.525,0.19 -1.07,0.19 l -0.959,0 C 44.759,5.253 44.748,5.122 44.739,4.977 44.73,4.833 44.719,4.645 44.709,4.412 L 44.606,1.947 C 44.591,1.563 44.58,1.21 44.572,0.883 44.563,0.557 44.555,0.263 44.549,0 l -0.867,0 z m 9.538,0.234 -0.044,0.787 c 0.399,-0.21 0.721,-0.352 0.965,-0.426 0.245,-0.076 0.485,-0.113 0.722,-0.113 0.331,0 0.591,0.069 0.783,0.21 0.191,0.14 0.288,0.332 0.288,0.577 0,0.15 -0.048,0.301 -0.144,0.451 -0.096,0.151 -0.249,0.317 -0.459,0.5 l -1.057,0.916 c -0.368,0.319 -0.613,0.581 -0.73,0.787 -0.118,0.207 -0.177,0.435 -0.177,0.687 0,0.462 0.161,0.827 0.484,1.095 0.324,0.267 0.766,0.4 1.331,0.4 0.238,0 0.474,-0.022 0.706,-0.064 0.234,-0.044 0.451,-0.106 0.651,-0.188 L 56.61,5.145 c -0.318,0.114 -0.593,0.197 -0.822,0.25 -0.23,0.051 -0.438,0.077 -0.624,0.077 -0.307,0 -0.553,-0.074 -0.739,-0.222 -0.185,-0.146 -0.279,-0.335 -0.279,-0.566 0,-0.138 0.041,-0.272 0.122,-0.402 0.08,-0.13 0.219,-0.281 0.414,-0.451 l 1.176,-1.022 c 0.313,-0.269 0.535,-0.514 0.666,-0.734 0.132,-0.222 0.197,-0.458 0.197,-0.708 0,-0.464 -0.164,-0.829 -0.49,-1.1 -0.326,-0.27 -0.77,-0.404 -1.333,-0.404 -0.272,0 -0.55,0.031 -0.832,0.095 -0.284,0.063 -0.565,0.155 -0.846,0.276"
           id="path8787"
           style="fill:#000000;fill-opacity:1;fill-rule:nonzero;stroke:none" />
      </g>
      <g
         transform="translate(485.57331,515.54448)"
         id="g8789">
        <path
           d="m 0,0 93.6,0 0,-0.802 -93.6,0 L 0,0 z"
           id="path8791"
           style="fill:#000000;fill-opacity:1;fill-rule:evenodd;stroke:none" />
      </g>
      <g
         transform="translate(511.37422,533.86617)"
         id="g8793">
        <path
           d="m 0,0 c 6.376,0 11.577,-3.545 11.577,-7.892 0,-4.347 -5.201,-7.892 -11.577,-7.892 -6.376,0 -11.576,3.545 -11.576,7.892 C -11.576,-3.545 -6.376,0 0,0 z m 32.666,-15.508 -6.49,0 -3.246,4.86 c -0.487,0.668 -1.06,1.483 -1.411,1.432 l -1.664,0.01 0,-6.302 -5.983,0 0,15.106 8.85,0 c 0.521,0 1.011,-0.008 1.47,-0.025 0.458,-0.016 1.006,-0.056 1.642,-0.12 0.635,-0.065 1.18,-0.173 1.642,-0.29 1.79,-0.454 3.471,-1.776 3.471,-3.834 0,-2.058 -1.697,-3.301 -3.503,-3.738 l 5.222,-7.099 z m -7.985,10.837 c -0.029,1.278 -1.611,1.724 -2,1.724 l -2.826,0 0,-3.696 2.826,0 c 1.151,-0.051 2.028,0.693 2,1.972 z m 29.499,-10.894 0,15.116 13.619,0 0,-3.151 -8.071,0 0,-2.786 8.071,0 0,-3.097 -8.071,0 0,-2.779 8.071,0 0,-3.303 -13.619,0 z m -79.981,0.063 0,15.053 13.527,0 0,-3.157 -8.036,0 0,-3.033 6.033,0 0,-2.912 -6.033,0 0,-5.951 -5.491,0 z m 76.118,10.051 c -2.545,1.79 -9.572,2.761 -10.654,-2.235 0,-4.715 6.369,-5.152 9.578,-3.164 l 2.656,-2.698 c -6.242,-4.682 -19.205,-2.224 -19.148,5.499 0.648,9.205 14.695,9.265 19.695,5.77 L 50.317,-5.451 z M 0,-4.498 c 3.048,0 5.534,-1.524 5.534,-3.394 0,-1.869 -2.486,-3.393 -5.534,-3.393 -3.048,0 -5.534,1.524 -5.534,3.393 0,1.87 2.486,3.394 5.534,3.394"
           id="path8795"
           style="fill:#176fc1;fill-opacity:1;fill-rule:evenodd;stroke:none" />
      </g>
    </g>
  </g>
</svg>
